<svg xmlns="http://www.w3.org/2000/svg" xmlns:xlink="http://www.w3.org/1999/xlink" width="200" zoomAndPan="magnify" viewBox="0 0 153.75 30.000001" height="500" preserveAspectRatio="xMidYMid meet" version="1.0"><defs><g/><clipPath id="842fc9cbb6"><path d="M 4 5 L 22 5 L 22 21.679688 L 4 21.679688 Z M 4 5 " clip-rule="nonzero"/></clipPath></defs><g fill="#000000" fill-opacity="1"><g transform="translate(24.855406, 16.034098)"><g><path d="M 2.328125 0.078125 C 2.054688 0.078125 1.800781 0.0390625 1.5625 -0.03125 C 1.332031 -0.101562 1.132812 -0.207031 0.96875 -0.34375 C 0.8125 -0.476562 0.679688 -0.640625 0.578125 -0.828125 C 0.484375 -1.023438 0.429688 -1.242188 0.421875 -1.484375 L 1.421875 -1.484375 C 1.429688 -1.253906 1.519531 -1.078125 1.6875 -0.953125 C 1.851562 -0.828125 2.070312 -0.765625 2.34375 -0.765625 C 2.632812 -0.765625 2.859375 -0.828125 3.015625 -0.953125 C 3.171875 -1.085938 3.25 -1.265625 3.25 -1.484375 C 3.25 -1.671875 3.1875 -1.832031 3.0625 -1.96875 C 2.945312 -2.113281 2.78125 -2.21875 2.5625 -2.28125 L 1.96875 -2.453125 C 1.007812 -2.722656 0.53125 -3.273438 0.53125 -4.109375 C 0.53125 -4.347656 0.570312 -4.5625 0.65625 -4.75 C 0.75 -4.9375 0.867188 -5.097656 1.015625 -5.234375 C 1.171875 -5.378906 1.359375 -5.488281 1.578125 -5.5625 C 1.804688 -5.632812 2.0625 -5.671875 2.34375 -5.671875 C 2.863281 -5.671875 3.285156 -5.53125 3.609375 -5.25 C 3.929688 -4.976562 4.109375 -4.609375 4.140625 -4.140625 L 3.15625 -4.140625 C 3.144531 -4.347656 3.0625 -4.507812 2.90625 -4.625 C 2.75 -4.75 2.550781 -4.8125 2.3125 -4.8125 C 2.0625 -4.8125 1.863281 -4.75 1.71875 -4.625 C 1.570312 -4.507812 1.5 -4.351562 1.5 -4.15625 C 1.5 -3.789062 1.722656 -3.539062 2.171875 -3.40625 L 2.796875 -3.234375 C 3.265625 -3.109375 3.617188 -2.898438 3.859375 -2.609375 C 4.097656 -2.316406 4.21875 -1.957031 4.21875 -1.53125 C 4.21875 -1.28125 4.171875 -1.054688 4.078125 -0.859375 C 3.992188 -0.671875 3.867188 -0.503906 3.703125 -0.359375 C 3.535156 -0.222656 3.335938 -0.113281 3.109375 -0.03125 C 2.878906 0.0390625 2.617188 0.078125 2.328125 0.078125 Z M 2.328125 0.078125 "/></g></g></g><g fill="#000000" fill-opacity="1"><g transform="translate(29.236754, 16.034098)"><g><path d="M 0.640625 -0.890625 L 2.171875 -0.890625 L 2.171875 -3.390625 L 0.84375 -3.390625 L 0.84375 -4.265625 L 3.09375 -4.265625 L 3.09375 -0.890625 L 4.328125 -0.890625 L 4.328125 0 L 0.640625 0 Z M 1.890625 -5.421875 C 1.890625 -5.566406 1.9375 -5.6875 2.03125 -5.78125 C 2.132812 -5.875 2.269531 -5.921875 2.4375 -5.921875 L 2.640625 -5.921875 C 2.804688 -5.921875 2.9375 -5.875 3.03125 -5.78125 C 3.132812 -5.6875 3.1875 -5.566406 3.1875 -5.421875 C 3.1875 -5.265625 3.132812 -5.140625 3.03125 -5.046875 C 2.9375 -4.953125 2.804688 -4.90625 2.640625 -4.90625 L 2.4375 -4.90625 C 2.269531 -4.90625 2.132812 -4.953125 2.03125 -5.046875 C 1.9375 -5.140625 1.890625 -5.265625 1.890625 -5.421875 Z M 1.890625 -5.421875 "/></g></g></g><g fill="#000000" fill-opacity="1"><g transform="translate(33.618102, 16.034098)"><g><path d="M 1.59375 -5.65625 L 1.59375 -2.578125 L 2.265625 -2.578125 L 3.328125 -4.265625 L 4.421875 -4.265625 L 3.09375 -2.1875 L 4.4375 0 L 3.328125 0 L 2.265625 -1.75 L 1.59375 -1.75 L 1.59375 0 L 0.625 0 L 0.625 -5.65625 Z M 1.59375 -5.65625 "/></g></g></g><g fill="#000000" fill-opacity="1"><g transform="translate(37.99945, 16.034098)"><g><path d="M 0.5625 -5.65625 L 1.53125 -5.65625 L 1.53125 -4.265625 C 1.53125 -4.179688 1.523438 -4.097656 1.515625 -4.015625 C 1.515625 -3.929688 1.507812 -3.851562 1.5 -3.78125 C 1.488281 -3.707031 1.476562 -3.644531 1.46875 -3.59375 C 1.46875 -3.550781 1.46875 -3.53125 1.46875 -3.53125 L 1.546875 -3.53125 C 1.597656 -3.78125 1.71875 -3.976562 1.90625 -4.125 C 2.101562 -4.269531 2.359375 -4.34375 2.671875 -4.34375 C 3.097656 -4.34375 3.4375 -4.203125 3.6875 -3.921875 C 3.945312 -3.640625 4.078125 -3.265625 4.078125 -2.796875 L 4.078125 0 L 3.109375 0 L 3.109375 -2.671875 C 3.109375 -2.929688 3.035156 -3.132812 2.890625 -3.28125 C 2.753906 -3.425781 2.566406 -3.5 2.328125 -3.5 C 2.078125 -3.5 1.878906 -3.421875 1.734375 -3.265625 C 1.597656 -3.117188 1.53125 -2.914062 1.53125 -2.65625 L 1.53125 0 L 0.5625 0 Z M 0.5625 -5.65625 "/></g></g></g><g fill="#000000" fill-opacity="1"><g transform="translate(42.380798, 16.034098)"><g/></g></g><g fill="#000000" fill-opacity="1"><g transform="translate(46.762147, 16.034098)"><g><path d="M 0.15625 -5.578125 L 1.1875 -5.578125 L 2.140625 -3.40625 C 2.179688 -3.320312 2.210938 -3.238281 2.234375 -3.15625 C 2.253906 -3.082031 2.269531 -3.015625 2.28125 -2.953125 C 2.300781 -2.878906 2.3125 -2.8125 2.3125 -2.75 L 2.359375 -2.75 C 2.367188 -2.8125 2.382812 -2.878906 2.40625 -2.953125 C 2.414062 -3.015625 2.429688 -3.082031 2.453125 -3.15625 C 2.472656 -3.238281 2.503906 -3.320312 2.546875 -3.40625 L 3.46875 -5.578125 L 4.484375 -5.578125 L 2.8125 -1.9375 L 2.8125 0 L 1.84375 0 L 1.84375 -1.9375 Z M 0.15625 -5.578125 "/></g></g></g><g fill="#000000" fill-opacity="1"><g transform="translate(51.143496, 16.034098)"><g><path d="M 1.4375 -1.609375 C 1.4375 -1.347656 1.515625 -1.144531 1.671875 -1 C 1.835938 -0.851562 2.054688 -0.78125 2.328125 -0.78125 C 2.597656 -0.78125 2.8125 -0.851562 2.96875 -1 C 3.125 -1.144531 3.203125 -1.347656 3.203125 -1.609375 L 3.203125 -2.65625 C 3.203125 -2.914062 3.125 -3.117188 2.96875 -3.265625 C 2.8125 -3.421875 2.597656 -3.5 2.328125 -3.5 C 2.054688 -3.5 1.835938 -3.421875 1.671875 -3.265625 C 1.515625 -3.117188 1.4375 -2.914062 1.4375 -2.65625 Z M 0.46875 -2.65625 C 0.46875 -2.90625 0.507812 -3.132812 0.59375 -3.34375 C 0.6875 -3.550781 0.8125 -3.726562 0.96875 -3.875 C 1.132812 -4.019531 1.332031 -4.132812 1.5625 -4.21875 C 1.789062 -4.300781 2.046875 -4.34375 2.328125 -4.34375 C 2.609375 -4.34375 2.859375 -4.300781 3.078125 -4.21875 C 3.304688 -4.132812 3.5 -4.019531 3.65625 -3.875 C 3.820312 -3.726562 3.945312 -3.550781 4.03125 -3.34375 C 4.125 -3.132812 4.171875 -2.90625 4.171875 -2.65625 L 4.171875 -1.609375 C 4.171875 -1.359375 4.125 -1.128906 4.03125 -0.921875 C 3.945312 -0.710938 3.828125 -0.53125 3.671875 -0.375 C 3.515625 -0.226562 3.320312 -0.113281 3.09375 -0.03125 C 2.863281 0.0390625 2.609375 0.078125 2.328125 0.078125 C 2.046875 0.078125 1.789062 0.0351562 1.5625 -0.046875 C 1.332031 -0.128906 1.132812 -0.242188 0.96875 -0.390625 C 0.8125 -0.535156 0.6875 -0.710938 0.59375 -0.921875 C 0.507812 -1.128906 0.46875 -1.359375 0.46875 -1.609375 Z M 0.46875 -2.65625 "/></g></g></g><g fill="#000000" fill-opacity="1"><g transform="translate(55.524846, 16.034098)"><g><path d="M 0.578125 -4.265625 L 1.5625 -4.265625 L 1.5625 -1.59375 C 1.5625 -1.039062 1.816406 -0.765625 2.328125 -0.765625 C 2.835938 -0.765625 3.09375 -1.039062 3.09375 -1.59375 L 3.09375 -4.265625 L 4.0625 -4.265625 L 4.0625 -1.59375 C 4.0625 -1.0625 3.90625 -0.648438 3.59375 -0.359375 C 3.289062 -0.0664062 2.867188 0.078125 2.328125 0.078125 C 1.773438 0.078125 1.34375 -0.0664062 1.03125 -0.359375 C 0.726562 -0.660156 0.578125 -1.070312 0.578125 -1.59375 Z M 0.578125 -4.265625 "/></g></g></g><g fill="#000000" fill-opacity="1"><g transform="translate(59.906195, 16.034098)"><g><path d="M 0.34375 -4.265625 L 1.53125 -4.265625 L 1.53125 -5.578125 L 2.5 -5.578125 L 2.5 -4.265625 L 4.109375 -4.265625 L 4.109375 -3.390625 L 2.5 -3.390625 L 2.5 -1.3125 C 2.5 -1.175781 2.535156 -1.066406 2.609375 -0.984375 C 2.691406 -0.910156 2.804688 -0.875 2.953125 -0.875 L 4.03125 -0.875 L 4.03125 0 L 2.890625 0 C 2.460938 0 2.128906 -0.117188 1.890625 -0.359375 C 1.648438 -0.597656 1.53125 -0.914062 1.53125 -1.3125 L 1.53125 -3.390625 L 0.34375 -3.390625 Z M 0.34375 -4.265625 "/></g></g></g><g fill="#000000" fill-opacity="1"><g transform="translate(64.287544, 16.034098)"><g><path d="M 0.5625 -5.65625 L 1.53125 -5.65625 L 1.53125 -4.265625 C 1.53125 -4.179688 1.523438 -4.097656 1.515625 -4.015625 C 1.515625 -3.929688 1.507812 -3.851562 1.5 -3.78125 C 1.488281 -3.707031 1.476562 -3.644531 1.46875 -3.59375 C 1.46875 -3.550781 1.46875 -3.53125 1.46875 -3.53125 L 1.546875 -3.53125 C 1.597656 -3.78125 1.71875 -3.976562 1.90625 -4.125 C 2.101562 -4.269531 2.359375 -4.34375 2.671875 -4.34375 C 3.097656 -4.34375 3.4375 -4.203125 3.6875 -3.921875 C 3.945312 -3.640625 4.078125 -3.265625 4.078125 -2.796875 L 4.078125 0 L 3.109375 0 L 3.109375 -2.671875 C 3.109375 -2.929688 3.035156 -3.132812 2.890625 -3.28125 C 2.753906 -3.425781 2.566406 -3.5 2.328125 -3.5 C 2.078125 -3.5 1.878906 -3.421875 1.734375 -3.265625 C 1.597656 -3.117188 1.53125 -2.914062 1.53125 -2.65625 L 1.53125 0 L 0.5625 0 Z M 0.5625 -5.65625 "/></g></g></g><g fill="#000000" fill-opacity="1"><g transform="translate(68.668893, 16.034098)"><g/></g></g><g fill="#000000" fill-opacity="1"><g transform="translate(73.050243, 16.034098)"><g><path d="M 2.359375 -5.65625 C 2.640625 -5.65625 2.890625 -5.613281 3.109375 -5.53125 C 3.328125 -5.457031 3.515625 -5.347656 3.671875 -5.203125 C 3.828125 -5.066406 3.953125 -4.894531 4.046875 -4.6875 C 4.140625 -4.488281 4.191406 -4.265625 4.203125 -4.015625 L 3.234375 -4.015625 C 3.222656 -4.253906 3.140625 -4.441406 2.984375 -4.578125 C 2.828125 -4.722656 2.617188 -4.796875 2.359375 -4.796875 C 2.085938 -4.796875 1.875 -4.71875 1.71875 -4.5625 C 1.5625 -4.414062 1.484375 -4.207031 1.484375 -3.9375 L 1.484375 -1.640625 C 1.484375 -1.367188 1.554688 -1.160156 1.703125 -1.015625 C 1.859375 -0.867188 2.078125 -0.796875 2.359375 -0.796875 C 2.617188 -0.796875 2.828125 -0.863281 2.984375 -1 C 3.140625 -1.144531 3.222656 -1.335938 3.234375 -1.578125 L 4.203125 -1.578125 C 4.179688 -1.066406 4.003906 -0.660156 3.671875 -0.359375 C 3.347656 -0.0664062 2.910156 0.078125 2.359375 0.078125 C 2.078125 0.078125 1.820312 0.0390625 1.59375 -0.03125 C 1.375 -0.113281 1.179688 -0.226562 1.015625 -0.375 C 0.859375 -0.53125 0.734375 -0.710938 0.640625 -0.921875 C 0.554688 -1.140625 0.515625 -1.378906 0.515625 -1.640625 L 0.515625 -3.9375 C 0.515625 -4.195312 0.554688 -4.429688 0.640625 -4.640625 C 0.734375 -4.859375 0.859375 -5.039062 1.015625 -5.1875 C 1.179688 -5.34375 1.375 -5.457031 1.59375 -5.53125 C 1.820312 -5.613281 2.078125 -5.65625 2.359375 -5.65625 Z M 2.359375 -5.65625 "/></g></g></g><g fill="#000000" fill-opacity="1"><g transform="translate(77.431592, 16.034098)"><g><path d="M 1.4375 -1.609375 C 1.4375 -1.347656 1.515625 -1.144531 1.671875 -1 C 1.835938 -0.851562 2.054688 -0.78125 2.328125 -0.78125 C 2.597656 -0.78125 2.8125 -0.851562 2.96875 -1 C 3.125 -1.144531 3.203125 -1.347656 3.203125 -1.609375 L 3.203125 -2.65625 C 3.203125 -2.914062 3.125 -3.117188 2.96875 -3.265625 C 2.8125 -3.421875 2.597656 -3.5 2.328125 -3.5 C 2.054688 -3.5 1.835938 -3.421875 1.671875 -3.265625 C 1.515625 -3.117188 1.4375 -2.914062 1.4375 -2.65625 Z M 0.46875 -2.65625 C 0.46875 -2.90625 0.507812 -3.132812 0.59375 -3.34375 C 0.6875 -3.550781 0.8125 -3.726562 0.96875 -3.875 C 1.132812 -4.019531 1.332031 -4.132812 1.5625 -4.21875 C 1.789062 -4.300781 2.046875 -4.34375 2.328125 -4.34375 C 2.609375 -4.34375 2.859375 -4.300781 3.078125 -4.21875 C 3.304688 -4.132812 3.5 -4.019531 3.65625 -3.875 C 3.820312 -3.726562 3.945312 -3.550781 4.03125 -3.34375 C 4.125 -3.132812 4.171875 -2.90625 4.171875 -2.65625 L 4.171875 -1.609375 C 4.171875 -1.359375 4.125 -1.128906 4.03125 -0.921875 C 3.945312 -0.710938 3.828125 -0.53125 3.671875 -0.375 C 3.515625 -0.226562 3.320312 -0.113281 3.09375 -0.03125 C 2.863281 0.0390625 2.609375 0.078125 2.328125 0.078125 C 2.046875 0.078125 1.789062 0.0351562 1.5625 -0.046875 C 1.332031 -0.128906 1.132812 -0.242188 0.96875 -0.390625 C 0.8125 -0.535156 0.6875 -0.710938 0.59375 -0.921875 C 0.507812 -1.128906 0.46875 -1.359375 0.46875 -1.609375 Z M 0.46875 -2.65625 "/></g></g></g><g fill="#000000" fill-opacity="1"><g transform="translate(81.812941, 16.034098)"><g><path d="M 0.46875 -2.671875 C 0.46875 -2.929688 0.503906 -3.160156 0.578125 -3.359375 C 0.648438 -3.566406 0.75 -3.742188 0.875 -3.890625 C 1 -4.035156 1.148438 -4.144531 1.328125 -4.21875 C 1.515625 -4.300781 1.71875 -4.34375 1.9375 -4.34375 C 2.25 -4.34375 2.503906 -4.269531 2.703125 -4.125 C 2.898438 -3.976562 3.023438 -3.78125 3.078125 -3.53125 L 3.15625 -3.53125 C 3.144531 -3.613281 3.140625 -3.703125 3.140625 -3.796875 C 3.128906 -3.867188 3.117188 -3.945312 3.109375 -4.03125 C 3.109375 -4.113281 3.109375 -4.191406 3.109375 -4.265625 L 3.109375 -5.65625 L 4.078125 -5.65625 L 4.078125 0 L 3.15625 0 L 3.15625 -0.75 L 3.078125 -0.75 C 3.023438 -0.488281 2.898438 -0.285156 2.703125 -0.140625 C 2.503906 0.00390625 2.25 0.078125 1.9375 0.078125 C 1.71875 0.078125 1.515625 0.0390625 1.328125 -0.03125 C 1.148438 -0.113281 1 -0.226562 0.875 -0.375 C 0.75 -0.519531 0.648438 -0.695312 0.578125 -0.90625 C 0.503906 -1.113281 0.46875 -1.347656 0.46875 -1.609375 Z M 2.28125 -0.765625 C 2.539062 -0.765625 2.742188 -0.84375 2.890625 -1 C 3.035156 -1.15625 3.109375 -1.359375 3.109375 -1.609375 L 3.109375 -2.65625 C 3.109375 -2.90625 3.03125 -3.109375 2.875 -3.265625 C 2.726562 -3.421875 2.53125 -3.5 2.28125 -3.5 C 2.019531 -3.5 1.8125 -3.421875 1.65625 -3.265625 C 1.507812 -3.117188 1.4375 -2.914062 1.4375 -2.65625 L 1.4375 -1.640625 C 1.4375 -1.367188 1.507812 -1.15625 1.65625 -1 C 1.8125 -0.84375 2.019531 -0.765625 2.28125 -0.765625 Z M 2.28125 -0.765625 "/></g></g></g><g fill="#000000" fill-opacity="1"><g transform="translate(86.19429, 16.034098)"><g><path d="M 0.640625 -0.890625 L 2.171875 -0.890625 L 2.171875 -3.390625 L 0.84375 -3.390625 L 0.84375 -4.265625 L 3.09375 -4.265625 L 3.09375 -0.890625 L 4.328125 -0.890625 L 4.328125 0 L 0.640625 0 Z M 1.890625 -5.421875 C 1.890625 -5.566406 1.9375 -5.6875 2.03125 -5.78125 C 2.132812 -5.875 2.269531 -5.921875 2.4375 -5.921875 L 2.640625 -5.921875 C 2.804688 -5.921875 2.9375 -5.875 3.03125 -5.78125 C 3.132812 -5.6875 3.1875 -5.566406 3.1875 -5.421875 C 3.1875 -5.265625 3.132812 -5.140625 3.03125 -5.046875 C 2.9375 -4.953125 2.804688 -4.90625 2.640625 -4.90625 L 2.4375 -4.90625 C 2.269531 -4.90625 2.132812 -4.953125 2.03125 -5.046875 C 1.9375 -5.140625 1.890625 -5.265625 1.890625 -5.421875 Z M 1.890625 -5.421875 "/></g></g></g><g fill="#000000" fill-opacity="1"><g transform="translate(90.57564, 16.034098)"><g><path d="M 0.5625 0 L 0.5625 -4.265625 L 1.484375 -4.265625 L 1.484375 -3.53125 L 1.546875 -3.53125 C 1.597656 -3.78125 1.71875 -3.976562 1.90625 -4.125 C 2.101562 -4.269531 2.359375 -4.34375 2.671875 -4.34375 C 3.097656 -4.34375 3.4375 -4.203125 3.6875 -3.921875 C 3.945312 -3.640625 4.078125 -3.265625 4.078125 -2.796875 L 4.078125 0 L 3.109375 0 L 3.109375 -2.671875 C 3.109375 -2.929688 3.035156 -3.132812 2.890625 -3.28125 C 2.753906 -3.425781 2.566406 -3.5 2.328125 -3.5 C 2.078125 -3.5 1.878906 -3.421875 1.734375 -3.265625 C 1.597656 -3.117188 1.53125 -2.914062 1.53125 -2.65625 L 1.53125 0 Z M 0.5625 0 "/></g></g></g><g fill="#000000" fill-opacity="1"><g transform="translate(94.956989, 16.034098)"><g><path d="M 0.453125 -2.6875 C 0.453125 -2.9375 0.484375 -3.160156 0.546875 -3.359375 C 0.617188 -3.566406 0.71875 -3.742188 0.84375 -3.890625 C 0.976562 -4.035156 1.132812 -4.144531 1.3125 -4.21875 C 1.5 -4.300781 1.703125 -4.34375 1.921875 -4.34375 C 2.242188 -4.34375 2.503906 -4.265625 2.703125 -4.109375 C 2.910156 -3.953125 3.039062 -3.742188 3.09375 -3.484375 L 3.15625 -3.484375 L 3.15625 -4.265625 L 4.078125 -4.265625 L 4.078125 -0.265625 C 4.078125 -0.0234375 4.035156 0.1875 3.953125 0.375 C 3.878906 0.5625 3.765625 0.722656 3.609375 0.859375 C 3.453125 0.992188 3.265625 1.097656 3.046875 1.171875 C 2.828125 1.242188 2.582031 1.28125 2.3125 1.28125 L 1.171875 1.28125 L 1.171875 0.46875 L 2.3125 0.46875 C 2.5625 0.46875 2.753906 0.398438 2.890625 0.265625 C 3.035156 0.140625 3.109375 -0.0351562 3.109375 -0.265625 L 3.109375 -0.34375 L 3.140625 -1.203125 L 3.09375 -1.203125 C 3.039062 -0.941406 2.910156 -0.734375 2.703125 -0.578125 C 2.492188 -0.421875 2.234375 -0.34375 1.921875 -0.34375 C 1.703125 -0.34375 1.5 -0.378906 1.3125 -0.453125 C 1.132812 -0.535156 0.976562 -0.648438 0.84375 -0.796875 C 0.71875 -0.941406 0.617188 -1.113281 0.546875 -1.3125 C 0.484375 -1.519531 0.453125 -1.75 0.453125 -2 Z M 1.421875 -2.015625 C 1.421875 -1.753906 1.492188 -1.550781 1.640625 -1.40625 C 1.796875 -1.257812 2.003906 -1.1875 2.265625 -1.1875 C 2.523438 -1.1875 2.726562 -1.257812 2.875 -1.40625 C 3.03125 -1.5625 3.109375 -1.765625 3.109375 -2.015625 L 3.109375 -2.671875 C 3.109375 -2.921875 3.03125 -3.117188 2.875 -3.265625 C 2.726562 -3.421875 2.523438 -3.5 2.265625 -3.5 C 2.003906 -3.5 1.796875 -3.421875 1.640625 -3.265625 C 1.492188 -3.117188 1.421875 -2.921875 1.421875 -2.671875 Z M 1.421875 -2.015625 "/></g></g></g><g fill="#000000" fill-opacity="1"><g transform="translate(99.338338, 16.034098)"><g/></g></g><g fill="#000000" fill-opacity="1"><g transform="translate(103.719687, 16.034098)"><g><path d="M 0.640625 0 L 0.640625 -0.84375 L 1.84375 -0.84375 L 1.84375 -4.734375 L 0.640625 -4.734375 L 0.640625 -5.578125 L 4 -5.578125 L 4 -4.734375 L 2.8125 -4.734375 L 2.8125 -0.84375 L 4 -0.84375 L 4 0 Z M 0.640625 0 "/></g></g></g><g fill="#000000" fill-opacity="1"><g transform="translate(108.101032, 16.034098)"><g><path d="M 0.5625 0 L 0.5625 -4.265625 L 1.484375 -4.265625 L 1.484375 -3.53125 L 1.546875 -3.53125 C 1.597656 -3.78125 1.71875 -3.976562 1.90625 -4.125 C 2.101562 -4.269531 2.359375 -4.34375 2.671875 -4.34375 C 3.097656 -4.34375 3.4375 -4.203125 3.6875 -3.921875 C 3.945312 -3.640625 4.078125 -3.265625 4.078125 -2.796875 L 4.078125 0 L 3.109375 0 L 3.109375 -2.671875 C 3.109375 -2.929688 3.035156 -3.132812 2.890625 -3.28125 C 2.753906 -3.425781 2.566406 -3.5 2.328125 -3.5 C 2.078125 -3.5 1.878906 -3.421875 1.734375 -3.265625 C 1.597656 -3.117188 1.53125 -2.914062 1.53125 -2.65625 L 1.53125 0 Z M 0.5625 0 "/></g></g></g><g fill="#000000" fill-opacity="1"><g transform="translate(112.482381, 16.034098)"><g><path d="M 0.640625 -0.890625 L 2.171875 -0.890625 L 2.171875 -3.390625 L 0.84375 -3.390625 L 0.84375 -4.265625 L 3.09375 -4.265625 L 3.09375 -0.890625 L 4.328125 -0.890625 L 4.328125 0 L 0.640625 0 Z M 1.890625 -5.421875 C 1.890625 -5.566406 1.9375 -5.6875 2.03125 -5.78125 C 2.132812 -5.875 2.269531 -5.921875 2.4375 -5.921875 L 2.640625 -5.921875 C 2.804688 -5.921875 2.9375 -5.875 3.03125 -5.78125 C 3.132812 -5.6875 3.1875 -5.566406 3.1875 -5.421875 C 3.1875 -5.265625 3.132812 -5.140625 3.03125 -5.046875 C 2.9375 -4.953125 2.804688 -4.90625 2.640625 -4.90625 L 2.4375 -4.90625 C 2.269531 -4.90625 2.132812 -4.953125 2.03125 -5.046875 C 1.9375 -5.140625 1.890625 -5.265625 1.890625 -5.421875 Z M 1.890625 -5.421875 "/></g></g></g><g fill="#000000" fill-opacity="1"><g transform="translate(116.86373, 16.034098)"><g><path d="M 0.34375 -4.265625 L 1.53125 -4.265625 L 1.53125 -5.578125 L 2.5 -5.578125 L 2.5 -4.265625 L 4.109375 -4.265625 L 4.109375 -3.390625 L 2.5 -3.390625 L 2.5 -1.3125 C 2.5 -1.175781 2.535156 -1.066406 2.609375 -0.984375 C 2.691406 -0.910156 2.804688 -0.875 2.953125 -0.875 L 4.03125 -0.875 L 4.03125 0 L 2.890625 0 C 2.460938 0 2.128906 -0.117188 1.890625 -0.359375 C 1.648438 -0.597656 1.53125 -0.914062 1.53125 -1.3125 L 1.53125 -3.390625 L 0.34375 -3.390625 Z M 0.34375 -4.265625 "/></g></g></g><g fill="#000000" fill-opacity="1"><g transform="translate(121.245079, 16.034098)"><g><path d="M 0.640625 -0.890625 L 2.171875 -0.890625 L 2.171875 -3.390625 L 0.84375 -3.390625 L 0.84375 -4.265625 L 3.09375 -4.265625 L 3.09375 -0.890625 L 4.328125 -0.890625 L 4.328125 0 L 0.640625 0 Z M 1.890625 -5.421875 C 1.890625 -5.566406 1.9375 -5.6875 2.03125 -5.78125 C 2.132812 -5.875 2.269531 -5.921875 2.4375 -5.921875 L 2.640625 -5.921875 C 2.804688 -5.921875 2.9375 -5.875 3.03125 -5.78125 C 3.132812 -5.6875 3.1875 -5.566406 3.1875 -5.421875 C 3.1875 -5.265625 3.132812 -5.140625 3.03125 -5.046875 C 2.9375 -4.953125 2.804688 -4.90625 2.640625 -4.90625 L 2.4375 -4.90625 C 2.269531 -4.90625 2.132812 -4.953125 2.03125 -5.046875 C 1.9375 -5.140625 1.890625 -5.265625 1.890625 -5.421875 Z M 1.890625 -5.421875 "/></g></g></g><g fill="#000000" fill-opacity="1"><g transform="translate(125.626429, 16.034098)"><g><path d="M 0.390625 -1.1875 C 0.390625 -1.40625 0.425781 -1.597656 0.5 -1.765625 C 0.582031 -1.929688 0.695312 -2.070312 0.84375 -2.1875 C 0.988281 -2.3125 1.160156 -2.40625 1.359375 -2.46875 C 1.566406 -2.53125 1.796875 -2.5625 2.046875 -2.5625 L 3.125 -2.5625 L 3.125 -2.921875 C 3.125 -3.117188 3.050781 -3.273438 2.90625 -3.390625 C 2.757812 -3.515625 2.554688 -3.578125 2.296875 -3.578125 C 2.078125 -3.578125 1.894531 -3.535156 1.75 -3.453125 C 1.613281 -3.378906 1.523438 -3.273438 1.484375 -3.140625 L 0.53125 -3.140625 C 0.59375 -3.515625 0.78125 -3.804688 1.09375 -4.015625 C 1.414062 -4.234375 1.816406 -4.34375 2.296875 -4.34375 C 2.566406 -4.34375 2.8125 -4.304688 3.03125 -4.234375 C 3.257812 -4.171875 3.453125 -4.078125 3.609375 -3.953125 C 3.765625 -3.835938 3.882812 -3.691406 3.96875 -3.515625 C 4.050781 -3.347656 4.09375 -3.15625 4.09375 -2.9375 L 4.09375 0 L 3.171875 0 L 3.171875 -0.84375 L 3.109375 -0.84375 C 3.054688 -0.5625 2.910156 -0.335938 2.671875 -0.171875 C 2.429688 -0.00390625 2.132812 0.078125 1.78125 0.078125 C 1.351562 0.078125 1.015625 -0.0351562 0.765625 -0.265625 C 0.515625 -0.492188 0.390625 -0.800781 0.390625 -1.1875 Z M 2.109375 -0.6875 C 2.410156 -0.6875 2.65625 -0.753906 2.84375 -0.890625 C 3.03125 -1.035156 3.125 -1.21875 3.125 -1.4375 L 3.125 -1.9375 L 2.0625 -1.9375 C 1.84375 -1.9375 1.671875 -1.878906 1.546875 -1.765625 C 1.421875 -1.660156 1.359375 -1.507812 1.359375 -1.3125 C 1.359375 -1.113281 1.425781 -0.957031 1.5625 -0.84375 C 1.695312 -0.738281 1.878906 -0.6875 2.109375 -0.6875 Z M 2.109375 -0.6875 "/></g></g></g><g fill="#000000" fill-opacity="1"><g transform="translate(130.007778, 16.034098)"><g><path d="M 0.34375 -4.265625 L 1.53125 -4.265625 L 1.53125 -5.578125 L 2.5 -5.578125 L 2.5 -4.265625 L 4.109375 -4.265625 L 4.109375 -3.390625 L 2.5 -3.390625 L 2.5 -1.3125 C 2.5 -1.175781 2.535156 -1.066406 2.609375 -0.984375 C 2.691406 -0.910156 2.804688 -0.875 2.953125 -0.875 L 4.03125 -0.875 L 4.03125 0 L 2.890625 0 C 2.460938 0 2.128906 -0.117188 1.890625 -0.359375 C 1.648438 -0.597656 1.53125 -0.914062 1.53125 -1.3125 L 1.53125 -3.390625 L 0.34375 -3.390625 Z M 0.34375 -4.265625 "/></g></g></g><g fill="#000000" fill-opacity="1"><g transform="translate(134.389127, 16.034098)"><g><path d="M 0.640625 -0.890625 L 2.171875 -0.890625 L 2.171875 -3.390625 L 0.84375 -3.390625 L 0.84375 -4.265625 L 3.09375 -4.265625 L 3.09375 -0.890625 L 4.328125 -0.890625 L 4.328125 0 L 0.640625 0 Z M 1.890625 -5.421875 C 1.890625 -5.566406 1.9375 -5.6875 2.03125 -5.78125 C 2.132812 -5.875 2.269531 -5.921875 2.4375 -5.921875 L 2.640625 -5.921875 C 2.804688 -5.921875 2.9375 -5.875 3.03125 -5.78125 C 3.132812 -5.6875 3.1875 -5.566406 3.1875 -5.421875 C 3.1875 -5.265625 3.132812 -5.140625 3.03125 -5.046875 C 2.9375 -4.953125 2.804688 -4.90625 2.640625 -4.90625 L 2.4375 -4.90625 C 2.269531 -4.90625 2.132812 -4.953125 2.03125 -5.046875 C 1.9375 -5.140625 1.890625 -5.265625 1.890625 -5.421875 Z M 1.890625 -5.421875 "/></g></g></g><g fill="#000000" fill-opacity="1"><g transform="translate(138.770476, 16.034098)"><g><path d="M 0.265625 -4.265625 L 1.265625 -4.265625 L 2.171875 -1.5 C 2.210938 -1.394531 2.238281 -1.296875 2.25 -1.203125 C 2.269531 -1.109375 2.285156 -1.023438 2.296875 -0.953125 C 2.304688 -0.867188 2.316406 -0.785156 2.328125 -0.703125 L 2.375 -0.703125 C 2.375 -0.785156 2.378906 -0.867188 2.390625 -0.953125 C 2.398438 -1.023438 2.414062 -1.109375 2.4375 -1.203125 C 2.457031 -1.296875 2.484375 -1.394531 2.515625 -1.5 L 3.375 -4.265625 L 4.390625 -4.265625 L 2.90625 0 L 1.765625 0 Z M 0.265625 -4.265625 "/></g></g></g><g fill="#000000" fill-opacity="1"><g transform="translate(143.151826, 16.034098)"><g><path d="M 2.328125 0.078125 C 2.046875 0.078125 1.789062 0.0390625 1.5625 -0.03125 C 1.332031 -0.113281 1.132812 -0.226562 0.96875 -0.375 C 0.8125 -0.519531 0.6875 -0.695312 0.59375 -0.90625 C 0.507812 -1.113281 0.46875 -1.34375 0.46875 -1.59375 L 0.46875 -2.671875 C 0.46875 -2.921875 0.507812 -3.148438 0.59375 -3.359375 C 0.6875 -3.566406 0.8125 -3.742188 0.96875 -3.890625 C 1.132812 -4.035156 1.332031 -4.144531 1.5625 -4.21875 C 1.789062 -4.300781 2.046875 -4.34375 2.328125 -4.34375 C 2.609375 -4.34375 2.859375 -4.300781 3.078125 -4.21875 C 3.304688 -4.132812 3.5 -4.019531 3.65625 -3.875 C 3.820312 -3.738281 3.945312 -3.566406 4.03125 -3.359375 C 4.125 -3.148438 4.171875 -2.921875 4.171875 -2.671875 L 4.171875 -1.890625 L 1.4375 -1.890625 L 1.4375 -1.609375 C 1.4375 -1.328125 1.515625 -1.101562 1.671875 -0.9375 C 1.828125 -0.78125 2.046875 -0.703125 2.328125 -0.703125 C 2.535156 -0.703125 2.710938 -0.734375 2.859375 -0.796875 C 3.003906 -0.867188 3.109375 -0.960938 3.171875 -1.078125 L 4.125 -1.078125 C 4.082031 -0.910156 4.003906 -0.753906 3.890625 -0.609375 C 3.785156 -0.460938 3.65625 -0.335938 3.5 -0.234375 C 3.34375 -0.128906 3.164062 -0.0507812 2.96875 0 C 2.769531 0.0507812 2.554688 0.078125 2.328125 0.078125 Z M 3.21875 -2.546875 L 3.21875 -2.671875 C 3.21875 -2.953125 3.140625 -3.171875 2.984375 -3.328125 C 2.828125 -3.484375 2.609375 -3.5625 2.328125 -3.5625 C 2.046875 -3.5625 1.828125 -3.484375 1.671875 -3.328125 C 1.515625 -3.171875 1.4375 -2.953125 1.4375 -2.671875 L 1.4375 -2.546875 Z M 3.21875 -2.546875 "/></g></g></g><g clip-path="url(#842fc9cbb6)"><path fill="#f9ab00" d="M 10.851562 19.6875 L 13.332031 22.171875 L 15.816406 19.6875 L 19.320312 19.6875 L 19.320312 16.171875 L 21.804688 13.6875 L 19.320312 11.195312 L 19.320312 7.660156 L 15.78125 7.660156 L 13.332031 5.195312 L 12.65625 5.871094 L 11.382812 7.148438 L 10.851562 7.660156 L 7.34375 7.660156 L 7.34375 11.195312 L 4.863281 13.6875 L 6.808594 15.636719 L 7.34375 16.171875 L 7.34375 19.6875 Z M 10.851562 19.6875 " fill-opacity="1" fill-rule="nonzero"/></g><path fill="#e37400" d="M 18.226562 13.6875 C 18.226562 14.007812 18.195312 14.328125 18.132812 14.644531 C 18.070312 14.960938 17.976562 15.265625 17.855469 15.566406 C 17.730469 15.863281 17.582031 16.144531 17.402344 16.414062 C 17.222656 16.679688 17.019531 16.929688 16.792969 17.15625 C 16.566406 17.382812 16.316406 17.589844 16.050781 17.765625 C 15.785156 17.945312 15.5 18.097656 15.203125 18.21875 C 14.90625 18.34375 14.601562 18.4375 14.285156 18.5 C 13.96875 18.5625 13.652344 18.59375 13.332031 18.59375 C 13.007812 18.59375 12.691406 18.5625 12.375 18.5 C 12.058594 18.4375 11.753906 18.34375 11.457031 18.21875 C 11.160156 18.097656 10.878906 17.945312 10.609375 17.765625 C 10.34375 17.589844 10.09375 17.382812 9.867188 17.15625 C 9.640625 16.929688 9.4375 16.679688 9.257812 16.414062 C 9.078125 16.144531 8.929688 15.863281 8.804688 15.566406 C 8.683594 15.265625 8.589844 14.960938 8.527344 14.644531 C 8.464844 14.328125 8.433594 14.007812 8.433594 13.6875 C 8.433594 13.363281 8.464844 13.046875 8.527344 12.730469 C 8.589844 12.414062 8.683594 12.105469 8.804688 11.808594 C 8.929688 11.511719 9.078125 11.230469 9.257812 10.960938 C 9.4375 10.691406 9.640625 10.445312 9.867188 10.21875 C 10.09375 9.988281 10.34375 9.785156 10.609375 9.605469 C 10.878906 9.429688 11.160156 9.277344 11.457031 9.152344 C 11.753906 9.03125 12.058594 8.9375 12.375 8.875 C 12.691406 8.8125 13.007812 8.78125 13.332031 8.78125 C 13.652344 8.78125 13.96875 8.8125 14.285156 8.871094 C 14.597656 8.933594 14.90625 9.027344 15.203125 9.152344 C 15.5 9.273438 15.78125 9.421875 16.046875 9.601562 C 16.316406 9.78125 16.5625 9.984375 16.789062 10.210938 C 17.019531 10.4375 17.21875 10.683594 17.398438 10.953125 C 17.578125 11.21875 17.730469 11.5 17.851562 11.796875 C 17.976562 12.097656 18.070312 12.402344 18.132812 12.71875 C 18.195312 13.03125 18.226562 13.351562 18.226562 13.671875 Z M 18.226562 13.6875 " fill-opacity="1" fill-rule="nonzero"/><path fill="#ffffff" d="M 12.429688 15.710938 L 13.636719 11.226562 L 14.300781 11.40625 L 13.09375 15.890625 Z M 12.429688 15.710938 " fill-opacity="1" fill-rule="nonzero"/><path fill="#ffffff" d="M 11.640625 11.972656 L 12.152344 12.429688 L 11.140625 13.566406 L 12.152344 14.691406 L 11.640625 15.152344 L 10.21875 13.558594 Z M 15.027344 11.964844 L 16.457031 13.550781 L 15.035156 15.136719 L 14.523438 14.679688 L 15.53125 13.550781 L 14.523438 12.425781 Z M 15.027344 11.964844 " fill-opacity="1" fill-rule="nonzero"/></svg>