<svg xmlns="http://www.w3.org/2000/svg" xmlns:xlink="http://www.w3.org/1999/xlink" width="512" zoomAndPan="magnify" viewBox="0 0 384 383.999986" height="512" preserveAspectRatio="xMidYMid meet" version="1.0"><defs><clipPath id="88fc699e62"><path d="M 23 27 L 362 27 L 362 361.351562 L 23 361.351562 Z M 23 27 " clip-rule="nonzero"/></clipPath></defs><g clip-path="url(#88fc699e62)"><path fill="#f9ab00" d="M 143.210938 316.097656 L 192.703125 365.640625 L 242.332031 316.097656 L 312.269531 316.097656 L 312.269531 245.960938 L 361.894531 196.417969 L 312.269531 146.742188 L 312.269531 76.199219 L 241.660156 76.199219 L 192.703125 27.0625 L 179.253906 40.523438 L 153.835938 65.96875 L 143.210938 76.199219 L 73.140625 76.199219 L 73.140625 146.742188 L 23.648438 196.417969 L 62.515625 235.324219 L 73.140625 245.960938 L 73.140625 316.097656 Z M 143.210938 316.097656 " fill-opacity="1" fill-rule="nonzero"/></g><path fill="#e37400" d="M 290.480469 196.417969 C 290.480469 198.019531 290.441406 199.621094 290.363281 201.222656 C 290.285156 202.820312 290.164062 204.417969 290.007812 206.011719 C 289.851562 207.605469 289.65625 209.195312 289.421875 210.777344 C 289.1875 212.363281 288.914062 213.941406 288.601562 215.511719 C 288.289062 217.082031 287.9375 218.644531 287.550781 220.199219 C 287.160156 221.753906 286.734375 223.296875 286.269531 224.828125 C 285.804688 226.363281 285.304688 227.882812 284.765625 229.390625 C 284.226562 230.898438 283.648438 232.390625 283.035156 233.871094 C 282.425781 235.351562 281.777344 236.816406 281.09375 238.265625 C 280.40625 239.710938 279.6875 241.140625 278.933594 242.554688 C 278.179688 243.96875 277.390625 245.359375 276.570312 246.734375 C 275.746094 248.109375 274.890625 249.460938 274 250.792969 C 273.113281 252.125 272.191406 253.433594 271.238281 254.71875 C 270.285156 256.007812 269.300781 257.269531 268.285156 258.507812 C 267.269531 259.746094 266.226562 260.957031 265.152344 262.144531 C 264.078125 263.332031 262.972656 264.492188 261.84375 265.625 C 260.710938 266.757812 259.550781 267.859375 258.367188 268.9375 C 257.179688 270.011719 255.96875 271.058594 254.730469 272.074219 C 253.496094 273.089844 252.234375 274.074219 250.949219 275.027344 C 249.664062 275.984375 248.355469 276.90625 247.023438 277.796875 C 245.695312 278.683594 244.34375 279.542969 242.972656 280.363281 C 241.597656 281.1875 240.207031 281.976562 238.796875 282.734375 C 237.382812 283.488281 235.953125 284.207031 234.507812 284.894531 C 233.0625 285.578125 231.597656 286.226562 230.121094 286.839844 C 228.644531 287.453125 227.148438 288.027344 225.644531 288.566406 C 224.136719 289.109375 222.617188 289.609375 221.085938 290.074219 C 219.554688 290.539062 218.011719 290.96875 216.460938 291.355469 C 214.910156 291.746094 213.347656 292.097656 211.777344 292.410156 C 210.210938 292.722656 208.632812 292.996094 207.050781 293.230469 C 205.46875 293.464844 203.878906 293.660156 202.289062 293.816406 C 200.695312 293.976562 199.101562 294.09375 197.5 294.171875 C 195.902344 294.25 194.304688 294.289062 192.703125 294.289062 C 191.105469 294.289062 189.503906 294.25 187.90625 294.171875 C 186.308594 294.09375 184.710938 293.976562 183.121094 293.816406 C 181.527344 293.660156 179.941406 293.464844 178.355469 293.230469 C 176.773438 292.996094 175.199219 292.722656 173.628906 292.410156 C 172.058594 292.097656 170.5 291.746094 168.945312 291.355469 C 167.394531 290.96875 165.851562 290.539062 164.320312 290.074219 C 162.789062 289.609375 161.269531 289.109375 159.765625 288.566406 C 158.257812 288.027344 156.765625 287.453125 155.285156 286.839844 C 153.808594 286.226562 152.347656 285.578125 150.898438 284.894531 C 149.453125 284.207031 148.023438 283.488281 146.613281 282.734375 C 145.203125 281.976562 143.808594 281.1875 142.4375 280.363281 C 141.0625 279.542969 139.710938 278.683594 138.382812 277.796875 C 137.050781 276.90625 135.742188 275.984375 134.457031 275.027344 C 133.171875 274.074219 131.914062 273.089844 130.675781 272.074219 C 129.4375 271.058594 128.226562 270.011719 127.042969 268.9375 C 125.855469 267.859375 124.695312 266.757812 123.566406 265.625 C 122.433594 264.492188 121.332031 263.332031 120.257812 262.144531 C 119.183594 260.957031 118.136719 259.746094 117.121094 258.507812 C 116.105469 257.269531 115.121094 256.007812 114.167969 254.71875 C 113.214844 253.433594 112.296875 252.125 111.40625 250.792969 C 110.515625 249.460938 109.660156 248.109375 108.839844 246.734375 C 108.015625 245.359375 107.226562 243.96875 106.472656 242.554688 C 105.71875 241.140625 105 239.710938 104.316406 238.265625 C 103.632812 236.816406 102.984375 235.351562 102.371094 233.871094 C 101.757812 232.390625 101.183594 230.898438 100.644531 229.390625 C 100.105469 227.882812 99.601562 226.363281 99.136719 224.828125 C 98.671875 223.296875 98.246094 221.753906 97.859375 220.199219 C 97.46875 218.644531 97.117188 217.082031 96.804688 215.511719 C 96.496094 213.941406 96.222656 212.363281 95.984375 210.777344 C 95.75 209.195312 95.554688 207.605469 95.398438 206.011719 C 95.242188 204.417969 95.125 202.820312 95.046875 201.222656 C 94.96875 199.621094 94.929688 198.019531 94.929688 196.417969 C 94.929688 194.816406 94.96875 193.214844 95.046875 191.617188 C 95.125 190.015625 95.242188 188.417969 95.398438 186.824219 C 95.554688 185.230469 95.75 183.640625 95.984375 182.058594 C 96.222656 180.472656 96.496094 178.894531 96.804688 177.324219 C 97.117188 175.753906 97.46875 174.191406 97.859375 172.636719 C 98.246094 171.085938 98.671875 169.539062 99.136719 168.007812 C 99.601562 166.476562 100.105469 164.953125 100.644531 163.445312 C 101.183594 161.9375 101.757812 160.445312 102.371094 158.964844 C 102.984375 157.484375 103.632812 156.019531 104.316406 154.574219 C 105 153.125 105.71875 151.695312 106.472656 150.28125 C 107.226562 148.871094 108.015625 147.476562 108.839844 146.101562 C 109.660156 144.730469 110.515625 143.375 111.40625 142.042969 C 112.296875 140.710938 113.214844 139.402344 114.167969 138.117188 C 115.121094 136.832031 116.105469 135.566406 117.121094 134.328125 C 118.136719 133.09375 119.183594 131.878906 120.257812 130.691406 C 121.332031 129.503906 122.433594 128.347656 123.566406 127.214844 C 124.695312 126.082031 125.855469 124.976562 127.042969 123.902344 C 128.226562 122.824219 129.4375 121.78125 130.675781 120.761719 C 131.914062 119.746094 133.171875 118.761719 134.457031 117.808594 C 135.742188 116.855469 137.050781 115.933594 138.382812 115.042969 C 139.714844 114.152344 141.0625 113.296875 142.4375 112.472656 C 143.808594 111.648438 145.203125 110.859375 146.613281 110.105469 C 148.023438 109.347656 149.453125 108.628906 150.898438 107.945312 C 152.347656 107.257812 153.808594 106.609375 155.285156 105.996094 C 156.765625 105.386719 158.257812 104.808594 159.765625 104.269531 C 161.269531 103.730469 162.789062 103.226562 164.320312 102.761719 C 165.851562 102.296875 167.394531 101.871094 168.945312 101.480469 C 170.5 101.089844 172.058594 100.742188 173.628906 100.429688 C 175.199219 100.117188 176.773438 99.84375 178.355469 99.605469 C 179.941406 99.371094 181.527344 99.175781 183.121094 99.019531 C 184.710938 98.863281 186.308594 98.746094 187.90625 98.664062 C 189.503906 98.585938 191.105469 98.546875 192.703125 98.546875 C 194.300781 98.546875 195.898438 98.582031 197.496094 98.660156 C 199.089844 98.734375 200.683594 98.851562 202.273438 99.003906 C 203.867188 99.160156 205.453125 99.351562 207.03125 99.585938 C 208.613281 99.820312 210.1875 100.089844 211.753906 100.398438 C 213.324219 100.710938 214.882812 101.058594 216.433594 101.445312 C 217.984375 101.832031 219.523438 102.253906 221.054688 102.71875 C 222.582031 103.179688 224.101562 103.679688 225.605469 104.214844 C 227.113281 104.753906 228.601562 105.324219 230.078125 105.9375 C 231.558594 106.546875 233.019531 107.191406 234.464844 107.875 C 235.910156 108.554688 237.335938 109.273438 238.746094 110.023438 C 240.15625 110.777344 241.550781 111.5625 242.921875 112.382812 C 244.292969 113.203125 245.644531 114.058594 246.972656 114.945312 C 248.304688 115.832031 249.609375 116.75 250.894531 117.703125 C 252.179688 118.652344 253.441406 119.632812 254.675781 120.648438 C 255.914062 121.660156 257.125 122.703125 258.3125 123.777344 C 259.496094 124.847656 260.65625 125.949219 261.785156 127.078125 C 262.917969 128.207031 264.019531 129.363281 265.09375 130.546875 C 266.171875 131.730469 267.214844 132.941406 268.230469 134.175781 C 269.246094 135.410156 270.230469 136.671875 271.183594 137.953125 C 272.136719 139.238281 273.058594 140.542969 273.949219 141.871094 C 274.839844 143.203125 275.695312 144.550781 276.519531 145.921875 C 277.34375 147.292969 278.132812 148.683594 278.886719 150.09375 C 279.640625 151.503906 280.363281 152.929688 281.046875 154.375 C 281.734375 155.820312 282.382812 157.28125 282.996094 158.757812 C 283.609375 160.234375 284.1875 161.726562 284.726562 163.230469 C 285.265625 164.734375 285.769531 166.253906 286.238281 167.785156 C 286.703125 169.3125 287.128906 170.855469 287.519531 172.40625 C 287.910156 173.957031 288.261719 175.515625 288.578125 177.085938 C 288.890625 178.652344 289.167969 180.226562 289.402344 181.808594 C 289.640625 183.390625 289.835938 184.980469 289.996094 186.570312 C 290.15625 188.160156 290.273438 189.757812 290.355469 191.355469 C 290.4375 192.953125 290.476562 194.550781 290.480469 196.148438 Z M 290.480469 196.417969 " fill-opacity="1" fill-rule="nonzero"/><path fill="#ffffff" d="M 174.746094 236.757812 L 198.847656 147.335938 L 212.09375 150.910156 L 187.992188 240.335938 Z M 174.746094 236.757812 " fill-opacity="1" fill-rule="nonzero"/><path fill="#ffffff" d="M 158.945312 162.222656 L 169.167969 171.378906 L 148.992188 193.996094 L 169.167969 216.476562 L 158.945312 225.632812 L 130.570312 193.859375 Z M 226.597656 162.089844 L 255.109375 193.726562 L 226.730469 225.363281 L 216.507812 216.207031 L 236.683594 193.726562 L 216.507812 171.242188 Z M 226.597656 162.089844 " fill-opacity="1" fill-rule="nonzero"/></svg>